<?xml version="1.0" encoding="utf-8" ?>
<svg baseProfile="full" height="40px" version="1.1" width="40px" xmlns="http://www.w3.org/2000/svg" xmlns:ev="http://www.w3.org/2001/xml-events" xmlns:xlink="http://www.w3.org/1999/xlink"><defs /><rect fill="#2aaaf0" height="1" width="1" x="15" y="5" /><rect fill="#29b1e8" height="1" width="1" x="16" y="5" /><rect fill="#28aeea" height="1" width="1" x="17" y="5" /><rect fill="#26ade8" height="1" width="1" x="18" y="5" /><rect fill="#25ace8" height="1" width="1" x="19" y="5" /><rect fill="#25abe7" height="1" width="1" x="20" y="5" /><rect fill="#24a9e8" height="1" width="1" x="21" y="5" /><rect fill="#23a9e7" height="1" width="1" x="22" y="5" /><rect fill="#23a6e7" height="1" width="1" x="23" y="5" /><rect fill="#22a5e5" height="1" width="1" x="24" y="5" /><rect fill="#2aaad4" height="1" width="1" x="25" y="5" /><rect fill="#00ffff" height="1" width="1" x="12" y="6" /><rect fill="#2bb3e9" height="1" width="1" x="13" y="6" /><rect fill="#2ab1eb" height="1" width="1" x="14" y="6" /><rect fill="#28b0e9" height="1" width="1" x="15" y="6" /><rect fill="#28afea" height="1" width="1" x="16" y="6" /><rect fill="#27ade9" height="1" width="1" x="17" y="6" /><rect fill="#26ace9" height="1" width="1" x="18" y="6" /><rect fill="#25abe8" height="1" width="1" x="19" y="6" /><rect fill="#24aae8" height="1" width="1" x="20" y="6" /><rect fill="#24a9e7" height="1" width="1" x="21" y="6" /><rect fill="#23a7e7" height="1" width="1" x="22" y="6" /><rect fill="#22a6e6" height="1" width="1" x="23" y="6" /><rect fill="#21a5e6" height="1" width="1" x="24" y="6" /><rect fill="#20a4e4" height="1" width="1" x="25" y="6" /><rect fill="#1fa3e4" height="1" width="1" x="26" y="6" /><rect fill="#20a2e3" height="1" width="1" x="27" y="6" /><rect fill="#2cb2eb" height="1" width="1" x="11" y="7" /><rect fill="#2ab1eb" height="1" width="1" x="12" y="7" /><rect fill="#2ab1eb" height="1" width="1" x="13" y="7" /><rect fill="#29b0ea" height="1" width="1" x="14" y="7" /><rect fill="#28afea" height="1" width="1" x="15" y="7" /><rect fill="#27ade9" height="1" width="1" x="16" y="7" /><rect fill="#26ace9" height="1" width="1" x="17" y="7" /><rect fill="#25abe7" height="1" width="1" x="18" y="7" /><rect fill="#24aae7" height="1" width="1" x="19" y="7" /><rect fill="#23a8e6" height="1" width="1" x="20" y="7" /><rect fill="#22a7e7" height="1" width="1" x="21" y="7" /><rect fill="#22a6e6" height="1" width="1" x="22" y="7" /><rect fill="#21a5e6" height="1" width="1" x="23" y="7" /><rect fill="#20a4e5" height="1" width="1" x="24" y="7" /><rect fill="#1fa3e5" height="1" width="1" x="25" y="7" /><rect fill="#1ea1e4" height="1" width="1" x="26" y="7" /><rect fill="#1e9fe3" height="1" width="1" x="27" y="7" /><rect fill="#1d9ee3" height="1" width="1" x="28" y="7" /><rect fill="#17a2e7" height="1" width="1" x="29" y="7" /><rect fill="#2bb3ea" height="1" width="1" x="10" y="8" /><rect fill="#2ab1eb" height="1" width="1" x="11" y="8" /><rect fill="#2ab1eb" height="1" width="1" x="12" y="8" /><rect fill="#29b0ea" height="1" width="1" x="13" y="8" /><rect fill="#28afea" height="1" width="1" x="14" y="8" /><rect fill="#27ace9" height="1" width="1" x="15" y="8" /><rect fill="#25abe9" height="1" width="1" x="16" y="8" /><rect fill="#26ace5" height="1" width="1" x="17" y="8" /><rect fill="#007fff" height="1" width="1" x="18" y="8" /><rect fill="#00aaff" height="1" width="1" x="22" y="8" /><rect fill="#22a1e6" height="1" width="1" x="23" y="8" /><rect fill="#1fa4e4" height="1" width="1" x="24" y="8" /><rect fill="#1da1e3" height="1" width="1" x="25" y="8" /><rect fill="#1ea0e4" height="1" width="1" x="26" y="8" /><rect fill="#1d9fe3" height="1" width="1" x="27" y="8" /><rect fill="#1c9ee3" height="1" width="1" x="28" y="8" /><rect fill="#1a9ce2" height="1" width="1" x="29" y="8" /><rect fill="#1a99e1" height="1" width="1" x="30" y="8" /><rect fill="#2cb2eb" height="1" width="1" x="9" y="9" /><rect fill="#2bb2ea" height="1" width="1" x="10" y="9" /><rect fill="#2ab1eb" height="1" width="1" x="11" y="9" /><rect fill="#29b0ea" height="1" width="1" x="12" y="9" /><rect fill="#28afea" height="1" width="1" x="13" y="9" /><rect fill="#27ace9" height="1" width="1" x="14" y="9" /><rect fill="#00ffff" height="1" width="1" x="25" y="9" /><rect fill="#1b9ee3" height="1" width="1" x="26" y="9" /><rect fill="#1b9ee3" height="1" width="1" x="27" y="9" /><rect fill="#1b9de2" height="1" width="1" x="28" y="9" /><rect fill="#1a9be2" height="1" width="1" x="29" y="9" /><rect fill="#199ae2" height="1" width="1" x="30" y="9" /><rect fill="#1899df" height="1" width="1" x="31" y="9" /><rect fill="#2bb2ec" height="1" width="1" x="8" y="10" /><rect fill="#2ab2ea" height="1" width="1" x="9" y="10" /><rect fill="#2ab1eb" height="1" width="1" x="10" y="10" /><rect fill="#29b0ea" height="1" width="1" x="11" y="10" /><rect fill="#27afe9" height="1" width="1" x="12" y="10" /><rect fill="#2db4f0" height="1" width="1" x="13" y="10" /><rect fill="#1c9be2" height="1" width="1" x="27" y="10" /><rect fill="#1a9ae2" height="1" width="1" x="28" y="10" /><rect fill="#199ae2" height="1" width="1" x="29" y="10" /><rect fill="#1899e1" height="1" width="1" x="30" y="10" /><rect fill="#1697e0" height="1" width="1" x="31" y="10" /><rect fill="#1794de" height="1" width="1" x="32" y="10" /><rect fill="#2ab1e9" height="1" width="1" x="7" y="11" /><rect fill="#2ab1ea" height="1" width="1" x="8" y="11" /><rect fill="#2ab1eb" height="1" width="1" x="9" y="11" /><rect fill="#29b0ea" height="1" width="1" x="10" y="11" /><rect fill="#28afea" height="1" width="1" x="11" y="11" /><rect fill="#24b6da" height="1" width="1" x="12" y="11" /><rect fill="#1c8de2" height="1" width="1" x="28" y="11" /><rect fill="#1799e0" height="1" width="1" x="29" y="11" /><rect fill="#1798e1" height="1" width="1" x="30" y="11" /><rect fill="#1796e0" height="1" width="1" x="31" y="11" /><rect fill="#1695e0" height="1" width="1" x="32" y="11" /><rect fill="#0099cc" height="1" width="1" x="33" y="11" /><rect fill="#2ab2ea" height="1" width="1" x="7" y="12" /><rect fill="#2ab1eb" height="1" width="1" x="8" y="12" /><rect fill="#29b0ea" height="1" width="1" x="9" y="12" /><rect fill="#28afea" height="1" width="1" x="10" y="12" /><rect fill="#2db4f0" height="1" width="1" x="11" y="12" /><rect fill="#25aae2" height="1" width="1" x="16" y="12" /><rect fill="#21a5e5" height="1" width="1" x="17" y="12" /><rect fill="#21a5e6" height="1" width="1" x="18" y="12" /><rect fill="#1fa4e4" height="1" width="1" x="19" y="12" /><rect fill="#1fa3e4" height="1" width="1" x="20" y="12" /><rect fill="#1da1e4" height="1" width="1" x="21" y="12" /><rect fill="#1c9be2" height="1" width="1" x="22" y="12" /><rect fill="#1ea0e1" height="1" width="1" x="23" y="12" /><rect fill="#1c9de2" height="1" width="1" x="24" y="12" /><rect fill="#1b9de2" height="1" width="1" x="25" y="12" /><rect fill="#1b9ae1" height="1" width="1" x="26" y="12" /><rect fill="#1b9ae3" height="1" width="1" x="29" y="12" /><rect fill="#1796df" height="1" width="1" x="30" y="12" /><rect fill="#1695e0" height="1" width="1" x="31" y="12" /><rect fill="#1594df" height="1" width="1" x="32" y="12" /><rect fill="#1493df" height="1" width="1" x="33" y="12" /><rect fill="#2ab1e9" height="1" width="1" x="6" y="13" /><rect fill="#2ab1eb" height="1" width="1" x="7" y="13" /><rect fill="#29b0ea" height="1" width="1" x="8" y="13" /><rect fill="#28afea" height="1" width="1" x="9" y="13" /><rect fill="#27abe9" height="1" width="1" x="10" y="13" /><rect fill="#22a7e6" height="1" width="1" x="15" y="13" /><rect fill="#22a6e6" height="1" width="1" x="16" y="13" /><rect fill="#21a5e6" height="1" width="1" x="17" y="13" /><rect fill="#20a4e5" height="1" width="1" x="18" y="13" /><rect fill="#1fa3e5" height="1" width="1" x="19" y="13" /><rect fill="#1ea1e4" height="1" width="1" x="20" y="13" /><rect fill="#1ea0e4" height="1" width="1" x="21" y="13" /><rect fill="#1d9ee2" height="1" width="1" x="22" y="13" /><rect fill="#1c9de2" height="1" width="1" x="23" y="13" /><rect fill="#1b9de2" height="1" width="1" x="24" y="13" /><rect fill="#1a9be2" height="1" width="1" x="25" y="13" /><rect fill="#189ae2" height="1" width="1" x="26" y="13" /><rect fill="#1595e0" height="1" width="1" x="30" y="13" /><rect fill="#1594df" height="1" width="1" x="31" y="13" /><rect fill="#1493df" height="1" width="1" x="32" y="13" /><rect fill="#1391de" height="1" width="1" x="33" y="13" /><rect fill="#00ffff" height="1" width="1" x="34" y="13" /><rect fill="#2ab1eb" height="1" width="1" x="6" y="14" /><rect fill="#29b0ea" height="1" width="1" x="7" y="14" /><rect fill="#28afea" height="1" width="1" x="8" y="14" /><rect fill="#26ade8" height="1" width="1" x="9" y="14" /><rect fill="#24a7e5" height="1" width="1" x="14" y="14" /><rect fill="#21a6e5" height="1" width="1" x="15" y="14" /><rect fill="#21a5e6" height="1" width="1" x="16" y="14" /><rect fill="#20a4e5" height="1" width="1" x="17" y="14" /><rect fill="#1fa2e4" height="1" width="1" x="18" y="14" /><rect fill="#1da1e4" height="1" width="1" x="19" y="14" /><rect fill="#1e9fe3" height="1" width="1" x="20" y="14" /><rect fill="#1c9fe2" height="1" width="1" x="21" y="14" /><rect fill="#1c9ee3" height="1" width="1" x="22" y="14" /><rect fill="#1a9de1" height="1" width="1" x="23" y="14" /><rect fill="#1a9be2" height="1" width="1" x="24" y="14" /><rect fill="#199ae2" height="1" width="1" x="25" y="14" /><rect fill="#1698e1" height="1" width="1" x="26" y="14" /><rect fill="#1690dd" height="1" width="1" x="30" y="14" /><rect fill="#1493de" height="1" width="1" x="31" y="14" /><rect fill="#1392de" height="1" width="1" x="32" y="14" /><rect fill="#1290de" height="1" width="1" x="33" y="14" /><rect fill="#0f8edb" height="1" width="1" x="34" y="14" /><rect fill="#33b2e5" height="1" width="1" x="5" y="15" /><rect fill="#29afea" height="1" width="1" x="6" y="15" /><rect fill="#28afea" height="1" width="1" x="7" y="15" /><rect fill="#27ade9" height="1" width="1" x="8" y="15" /><rect fill="#24ade8" height="1" width="1" x="9" y="15" /><rect fill="#24a3ec" height="1" width="1" x="13" y="15" /><rect fill="#22a5e6" height="1" width="1" x="14" y="15" /><rect fill="#21a5e6" height="1" width="1" x="15" y="15" /><rect fill="#20a4e5" height="1" width="1" x="16" y="15" /><rect fill="#1ea2e5" height="1" width="1" x="17" y="15" /><rect fill="#22a2e7" height="1" width="1" x="18" y="15" /><rect fill="#1caae2" height="1" width="1" x="21" y="15" /><rect fill="#1b9de2" height="1" width="1" x="22" y="15" /><rect fill="#1a9be2" height="1" width="1" x="23" y="15" /><rect fill="#199ae2" height="1" width="1" x="24" y="15" /><rect fill="#1899e1" height="1" width="1" x="25" y="15" /><rect fill="#1699e0" height="1" width="1" x="26" y="15" /><rect fill="#1292de" height="1" width="1" x="31" y="15" /><rect fill="#1290de" height="1" width="1" x="32" y="15" /><rect fill="#118fdd" height="1" width="1" x="33" y="15" /><rect fill="#108cdd" height="1" width="1" x="34" y="15" /><rect fill="#29aeea" height="1" width="1" x="5" y="16" /><rect fill="#28afea" height="1" width="1" x="6" y="16" /><rect fill="#27ade9" height="1" width="1" x="7" y="16" /><rect fill="#25ace9" height="1" width="1" x="8" y="16" /><rect fill="#2aaad4" height="1" width="1" x="9" y="16" /><rect fill="#22a5e6" height="1" width="1" x="13" y="16" /><rect fill="#21a5e6" height="1" width="1" x="14" y="16" /><rect fill="#20a4e5" height="1" width="1" x="15" y="16" /><rect fill="#1fa2e5" height="1" width="1" x="16" y="16" /><rect fill="#21a6e8" height="1" width="1" x="17" y="16" /><rect fill="#1b99e3" height="1" width="1" x="22" y="16" /><rect fill="#199ae2" height="1" width="1" x="23" y="16" /><rect fill="#1899e1" height="1" width="1" x="24" y="16" /><rect fill="#1798e1" height="1" width="1" x="25" y="16" /><rect fill="#1696e1" height="1" width="1" x="26" y="16" /><rect fill="#128fde" height="1" width="1" x="31" y="16" /><rect fill="#118fdd" height="1" width="1" x="32" y="16" /><rect fill="#108edd" height="1" width="1" x="33" y="16" /><rect fill="#108ddc" height="1" width="1" x="34" y="16" /><rect fill="#28aee9" height="1" width="1" x="5" y="17" /><rect fill="#27ade9" height="1" width="1" x="6" y="17" /><rect fill="#26ace9" height="1" width="1" x="7" y="17" /><rect fill="#24aae8" height="1" width="1" x="8" y="17" /><rect fill="#00ffff" height="1" width="1" x="12" y="17" /><rect fill="#21a4e5" height="1" width="1" x="13" y="17" /><rect fill="#20a4e5" height="1" width="1" x="14" y="17" /><rect fill="#1fa3e5" height="1" width="1" x="15" y="17" /><rect fill="#1ea1e4" height="1" width="1" x="16" y="17" /><rect fill="#1999e5" height="1" width="1" x="22" y="17" /><rect fill="#1899e1" height="1" width="1" x="23" y="17" /><rect fill="#1798e1" height="1" width="1" x="24" y="17" /><rect fill="#1796e0" height="1" width="1" x="25" y="17" /><rect fill="#1696df" height="1" width="1" x="26" y="17" /><rect fill="#108fdc" height="1" width="1" x="31" y="17" /><rect fill="#108edd" height="1" width="1" x="32" y="17" /><rect fill="#108ddc" height="1" width="1" x="33" y="17" /><rect fill="#0f8bdb" height="1" width="1" x="34" y="17" /><rect fill="#26ade8" height="1" width="1" x="5" y="18" /><rect fill="#26ace9" height="1" width="1" x="6" y="18" /><rect fill="#25abe8" height="1" width="1" x="7" y="18" /><rect fill="#24aae8" height="1" width="1" x="8" y="18" /><rect fill="#23a2e2" height="1" width="1" x="12" y="18" /><rect fill="#20a4e5" height="1" width="1" x="13" y="18" /><rect fill="#1fa3e5" height="1" width="1" x="14" y="18" /><rect fill="#1ea1e4" height="1" width="1" x="15" y="18" /><rect fill="#1da0e1" height="1" width="1" x="16" y="18" /><rect fill="#1797e0" height="1" width="1" x="23" y="18" /><rect fill="#1796e0" height="1" width="1" x="24" y="18" /><rect fill="#1695e0" height="1" width="1" x="25" y="18" /><rect fill="#1792e0" height="1" width="1" x="26" y="18" /><rect fill="#108edc" height="1" width="1" x="31" y="18" /><rect fill="#108ddc" height="1" width="1" x="32" y="18" /><rect fill="#0f8cdc" height="1" width="1" x="33" y="18" /><rect fill="#0e89db" height="1" width="1" x="34" y="18" /><rect fill="#26abe9" height="1" width="1" x="5" y="19" /><rect fill="#25abe8" height="1" width="1" x="6" y="19" /><rect fill="#24aae8" height="1" width="1" x="7" y="19" /><rect fill="#23a9e7" height="1" width="1" x="8" y="19" /><rect fill="#20a3e4" height="1" width="1" x="12" y="19" /><rect fill="#1fa3e5" height="1" width="1" x="13" y="19" /><rect fill="#1ea1e4" height="1" width="1" x="14" y="19" /><rect fill="#1e9fe3" height="1" width="1" x="15" y="19" /><rect fill="#17a2e7" height="1" width="1" x="22" y="19" /><rect fill="#1796e0" height="1" width="1" x="23" y="19" /><rect fill="#1695e0" height="1" width="1" x="24" y="19" /><rect fill="#1594df" height="1" width="1" x="25" y="19" /><rect fill="#178be7" height="1" width="1" x="26" y="19" /><rect fill="#118cdd" height="1" width="1" x="31" y="19" /><rect fill="#0f8cdc" height="1" width="1" x="32" y="19" /><rect fill="#0e8adb" height="1" width="1" x="33" y="19" /><rect fill="#0c89db" height="1" width="1" x="34" y="19" /><rect fill="#24aae8" height="1" width="1" x="5" y="20" /><rect fill="#24aae8" height="1" width="1" x="6" y="20" /><rect fill="#24a9e7" height="1" width="1" x="7" y="20" /><rect fill="#23a7e6" height="1" width="1" x="8" y="20" /><rect fill="#1ea2e4" height="1" width="1" x="12" y="20" /><rect fill="#1ea1e4" height="1" width="1" x="13" y="20" /><rect fill="#1ea0e4" height="1" width="1" x="14" y="20" /><rect fill="#1d9ee2" height="1" width="1" x="15" y="20" /><rect fill="#1897e0" height="1" width="1" x="22" y="20" /><rect fill="#1695e0" height="1" width="1" x="23" y="20" /><rect fill="#1594df" height="1" width="1" x="24" y="20" /><rect fill="#1393de" height="1" width="1" x="25" y="20" /><rect fill="#0f8bdc" height="1" width="1" x="31" y="20" /><rect fill="#0e8adb" height="1" width="1" x="32" y="20" /><rect fill="#0d89db" height="1" width="1" x="33" y="20" /><rect fill="#0b87da" height="1" width="1" x="34" y="20" /><rect fill="#24aae7" height="1" width="1" x="5" y="21" /><rect fill="#24a9e7" height="1" width="1" x="6" y="21" /><rect fill="#23a7e7" height="1" width="1" x="7" y="21" /><rect fill="#22a5e6" height="1" width="1" x="8" y="21" /><rect fill="#1ea2e5" height="1" width="1" x="12" y="21" /><rect fill="#1ea0e4" height="1" width="1" x="13" y="21" /><rect fill="#1d9fe3" height="1" width="1" x="14" y="21" /><rect fill="#1b9ee3" height="1" width="1" x="15" y="21" /><rect fill="#1595e1" height="1" width="1" x="22" y="21" /><rect fill="#1594df" height="1" width="1" x="23" y="21" /><rect fill="#1493df" height="1" width="1" x="24" y="21" /><rect fill="#1391dd" height="1" width="1" x="25" y="21" /><rect fill="#0e89da" height="1" width="1" x="31" y="21" /><rect fill="#0d89db" height="1" width="1" x="32" y="21" /><rect fill="#0c88da" height="1" width="1" x="33" y="21" /><rect fill="#0a86da" height="1" width="1" x="34" y="21" /><rect fill="#24a9e6" height="1" width="1" x="5" y="22" /><rect fill="#23a7e7" height="1" width="1" x="6" y="22" /><rect fill="#22a6e6" height="1" width="1" x="7" y="22" /><rect fill="#20a4e6" height="1" width="1" x="8" y="22" /><rect fill="#1da0e4" height="1" width="1" x="12" y="22" /><rect fill="#1d9fe3" height="1" width="1" x="13" y="22" /><rect fill="#1c9ee3" height="1" width="1" x="14" y="22" /><rect fill="#1a9ce2" height="1" width="1" x="15" y="22" /><rect fill="#1494de" height="1" width="1" x="22" y="22" /><rect fill="#1493df" height="1" width="1" x="23" y="22" /><rect fill="#1392de" height="1" width="1" x="24" y="22" /><rect fill="#1290dd" height="1" width="1" x="25" y="22" /><rect fill="#0b85dd" height="1" width="1" x="30" y="22" /><rect fill="#0d89db" height="1" width="1" x="31" y="22" /><rect fill="#0c88da" height="1" width="1" x="32" y="22" /><rect fill="#0b87da" height="1" width="1" x="33" y="22" /><rect fill="#0988da" height="1" width="1" x="34" y="22" /><rect fill="#23a7e7" height="1" width="1" x="5" y="23" /><rect fill="#22a6e6" height="1" width="1" x="6" y="23" /><rect fill="#21a5e6" height="1" width="1" x="7" y="23" /><rect fill="#20a4e4" height="1" width="1" x="8" y="23" /><rect fill="#1ba0e3" height="1" width="1" x="12" y="23" /><rect fill="#1c9ee3" height="1" width="1" x="13" y="23" /><rect fill="#1b9de2" height="1" width="1" x="14" y="23" /><rect fill="#1a9ae1" height="1" width="1" x="15" y="23" /><rect fill="#179ae1" height="1" width="1" x="16" y="23" /><rect fill="#1794e1" height="1" width="1" x="21" y="23" /><rect fill="#1492de" height="1" width="1" x="22" y="23" /><rect fill="#1392de" height="1" width="1" x="23" y="23" /><rect fill="#1290de" height="1" width="1" x="24" y="23" /><rect fill="#108edd" height="1" width="1" x="25" y="23" /><rect fill="#00aaff" height="1" width="1" x="26" y="23" /><rect fill="#0d88db" height="1" width="1" x="30" y="23" /><rect fill="#0c88da" height="1" width="1" x="31" y="23" /><rect fill="#0b87da" height="1" width="1" x="32" y="23" /><rect fill="#0a84d8" height="1" width="1" x="33" y="23" /><rect fill="#23a7e7" height="1" width="1" x="5" y="24" /><rect fill="#21a5e6" height="1" width="1" x="6" y="24" /><rect fill="#20a4e5" height="1" width="1" x="7" y="24" /><rect fill="#1fa3e4" height="1" width="1" x="8" y="24" /><rect fill="#19a5e5" height="1" width="1" x="9" y="24" /><rect fill="#1caae2" height="1" width="1" x="12" y="24" /><rect fill="#1a9ce2" height="1" width="1" x="13" y="24" /><rect fill="#1a9be2" height="1" width="1" x="14" y="24" /><rect fill="#199ae2" height="1" width="1" x="15" y="24" /><rect fill="#1899e0" height="1" width="1" x="16" y="24" /><rect fill="#00aaff" height="1" width="1" x="17" y="24" /><rect fill="#1690dd" height="1" width="1" x="20" y="24" /><rect fill="#1493df" height="1" width="1" x="21" y="24" /><rect fill="#1391de" height="1" width="1" x="22" y="24" /><rect fill="#118fde" height="1" width="1" x="23" y="24" /><rect fill="#118fdd" height="1" width="1" x="24" y="24" /><rect fill="#108edd" height="1" width="1" x="25" y="24" /><rect fill="#0e8cdb" height="1" width="1" x="26" y="24" /><rect fill="#0e8ada" height="1" width="1" x="29" y="24" /><rect fill="#0c88da" height="1" width="1" x="30" y="24" /><rect fill="#0b87da" height="1" width="1" x="31" y="24" /><rect fill="#0a84d8" height="1" width="1" x="32" y="24" /><rect fill="#0686d6" height="1" width="1" x="33" y="24" /><rect fill="#2aaad4" height="1" width="1" x="5" y="25" /><rect fill="#1fa3e4" height="1" width="1" x="6" y="25" /><rect fill="#1fa3e5" height="1" width="1" x="7" y="25" /><rect fill="#1ea1e4" height="1" width="1" x="8" y="25" /><rect fill="#1e9fe2" height="1" width="1" x="9" y="25" /><rect fill="#199ae1" height="1" width="1" x="13" y="25" /><rect fill="#199ae2" height="1" width="1" x="14" y="25" /><rect fill="#1899e1" height="1" width="1" x="15" y="25" /><rect fill="#1798e1" height="1" width="1" x="16" y="25" /><rect fill="#1696df" height="1" width="1" x="17" y="25" /><rect fill="#1595df" height="1" width="1" x="18" y="25" /><rect fill="#1593df" height="1" width="1" x="19" y="25" /><rect fill="#1493de" height="1" width="1" x="20" y="25" /><rect fill="#1392de" height="1" width="1" x="21" y="25" /><rect fill="#138fde" height="1" width="1" x="22" y="25" /><rect fill="#108fdc" height="1" width="1" x="23" y="25" /><rect fill="#108edd" height="1" width="1" x="24" y="25" /><rect fill="#108ddc" height="1" width="1" x="25" y="25" /><rect fill="#0f8cdb" height="1" width="1" x="26" y="25" /><rect fill="#0e8ada" height="1" width="1" x="27" y="25" /><rect fill="#0d88da" height="1" width="1" x="28" y="25" /><rect fill="#0c88da" height="1" width="1" x="29" y="25" /><rect fill="#0b87da" height="1" width="1" x="30" y="25" /><rect fill="#0a84d8" height="1" width="1" x="31" y="25" /><rect fill="#0a85d8" height="1" width="1" x="32" y="25" /><rect fill="#1ea2e5" height="1" width="1" x="6" y="26" /><rect fill="#1ea1e4" height="1" width="1" x="7" y="26" /><rect fill="#1ea0e4" height="1" width="1" x="8" y="26" /><rect fill="#1c9fe3" height="1" width="1" x="9" y="26" /><rect fill="#1f9fdf" height="1" width="1" x="10" y="26" /><rect fill="#2491da" height="1" width="1" x="13" y="26" /><rect fill="#1899e1" height="1" width="1" x="14" y="26" /><rect fill="#1798e1" height="1" width="1" x="15" y="26" /><rect fill="#1796e0" height="1" width="1" x="16" y="26" /><rect fill="#1695e0" height="1" width="1" x="17" y="26" /><rect fill="#1594df" height="1" width="1" x="18" y="26" /><rect fill="#1493df" height="1" width="1" x="19" y="26" /><rect fill="#1392de" height="1" width="1" x="20" y="26" /><rect fill="#118fdd" height="1" width="1" x="21" y="26" /><rect fill="#0f8edc" height="1" width="1" x="23" y="26" /><rect fill="#108ddc" height="1" width="1" x="24" y="26" /><rect fill="#0f8cdc" height="1" width="1" x="25" y="26" /><rect fill="#0e8adb" height="1" width="1" x="26" y="26" /><rect fill="#0d89db" height="1" width="1" x="27" y="26" /><rect fill="#0c88da" height="1" width="1" x="28" y="26" /><rect fill="#0b87da" height="1" width="1" x="29" y="26" /><rect fill="#0a84d8" height="1" width="1" x="30" y="26" /><rect fill="#0a84d8" height="1" width="1" x="31" y="26" /><rect fill="#1da0e1" height="1" width="1" x="6" y="27" /><rect fill="#1da0e4" height="1" width="1" x="7" y="27" /><rect fill="#1d9fe3" height="1" width="1" x="8" y="27" /><rect fill="#1c9ee3" height="1" width="1" x="9" y="27" /><rect fill="#1b9ce1" height="1" width="1" x="10" y="27" /><rect fill="#2491da" height="1" width="1" x="14" y="27" /><rect fill="#1696e0" height="1" width="1" x="15" y="27" /><rect fill="#1594e0" height="1" width="1" x="16" y="27" /><rect fill="#1594df" height="1" width="1" x="17" y="27" /><rect fill="#1393df" height="1" width="1" x="18" y="27" /><rect fill="#1292dd" height="1" width="1" x="19" y="27" /><rect fill="#1090dd" height="1" width="1" x="20" y="27" /><rect fill="#00ffff" height="1" width="1" x="21" y="27" /><rect fill="#0e8ddc" height="1" width="1" x="24" y="27" /><rect fill="#0e89da" height="1" width="1" x="25" y="27" /><rect fill="#0d88db" height="1" width="1" x="26" y="27" /><rect fill="#0c88da" height="1" width="1" x="27" y="27" /><rect fill="#0b87da" height="1" width="1" x="28" y="27" /><rect fill="#0a85d8" height="1" width="1" x="29" y="27" /><rect fill="#0686d6" height="1" width="1" x="30" y="27" /><rect fill="#1d9ee3" height="1" width="1" x="7" y="28" /><rect fill="#1c9ee3" height="1" width="1" x="8" y="28" /><rect fill="#1b9de2" height="1" width="1" x="9" y="28" /><rect fill="#1a9be2" height="1" width="1" x="10" y="28" /><rect fill="#189be3" height="1" width="1" x="11" y="28" /><rect fill="#1f9fdf" height="1" width="1" x="17" y="28" /><rect fill="#007fff" height="1" width="1" x="18" y="28" /><rect fill="#007fff" height="1" width="1" x="26" y="28" /><rect fill="#007fdf" height="1" width="1" x="27" y="28" /><rect fill="#1f9fdf" height="1" width="1" x="7" y="29" /><rect fill="#1a9de1" height="1" width="1" x="8" y="29" /><rect fill="#1a9be2" height="1" width="1" x="9" y="29" /><rect fill="#199ae2" height="1" width="1" x="10" y="29" /><rect fill="#1898e0" height="1" width="1" x="11" y="29" /><rect fill="#1798e1" height="1" width="1" x="12" y="29" /><rect fill="#1e99e0" height="1" width="1" x="8" y="30" /><rect fill="#189ae1" height="1" width="1" x="9" y="30" /><rect fill="#1899e1" height="1" width="1" x="10" y="30" /><rect fill="#1798e1" height="1" width="1" x="11" y="30" /><rect fill="#1796e0" height="1" width="1" x="12" y="30" /><rect fill="#1594e0" height="1" width="1" x="13" y="30" /><rect fill="#1794e1" height="1" width="1" x="14" y="30" /><rect fill="#008de2" height="1" width="1" x="27" y="30" /><rect fill="#1594df" height="1" width="1" x="9" y="31" /><rect fill="#1698e0" height="1" width="1" x="10" y="31" /><rect fill="#1796e0" height="1" width="1" x="11" y="31" /><rect fill="#1695e0" height="1" width="1" x="12" y="31" /><rect fill="#1594df" height="1" width="1" x="13" y="31" /><rect fill="#1493de" height="1" width="1" x="14" y="31" /><rect fill="#1292de" height="1" width="1" x="15" y="31" /><rect fill="#118fdd" height="1" width="1" x="16" y="31" /><rect fill="#138fde" height="1" width="1" x="17" y="31" /><rect fill="#007fd4" height="1" width="1" x="18" y="31" /><rect fill="#007fff" height="1" width="1" x="22" y="31" /><rect fill="#0883db" height="1" width="1" x="23" y="31" /><rect fill="#0a88d9" height="1" width="1" x="24" y="31" /><rect fill="#0984d9" height="1" width="1" x="25" y="31" /><rect fill="#0a84d8" height="1" width="1" x="26" y="31" /><rect fill="#0985d8" height="1" width="1" x="27" y="31" /><rect fill="#0099cc" height="1" width="1" x="10" y="32" /><rect fill="#1694e0" height="1" width="1" x="11" y="32" /><rect fill="#1493de" height="1" width="1" x="12" y="32" /><rect fill="#1493df" height="1" width="1" x="13" y="32" /><rect fill="#1392de" height="1" width="1" x="14" y="32" /><rect fill="#1290de" height="1" width="1" x="15" y="32" /><rect fill="#118fdd" height="1" width="1" x="16" y="32" /><rect fill="#108edd" height="1" width="1" x="17" y="32" /><rect fill="#108ddc" height="1" width="1" x="18" y="32" /><rect fill="#0e8cdc" height="1" width="1" x="19" y="32" /><rect fill="#0d89db" height="1" width="1" x="20" y="32" /><rect fill="#0c89da" height="1" width="1" x="21" y="32" /><rect fill="#0c88da" height="1" width="1" x="22" y="32" /><rect fill="#0b87da" height="1" width="1" x="23" y="32" /><rect fill="#0a85d9" height="1" width="1" x="24" y="32" /><rect fill="#0a85d9" height="1" width="1" x="25" y="32" /><rect fill="#0a85d9" height="1" width="1" x="26" y="32" /><rect fill="#0984d8" height="1" width="1" x="27" y="32" /><rect fill="#1796dc" height="1" width="1" x="12" y="33" /><rect fill="#1291dd" height="1" width="1" x="13" y="33" /><rect fill="#118fdd" height="1" width="1" x="14" y="33" /><rect fill="#118fdd" height="1" width="1" x="15" y="33" /><rect fill="#108edd" height="1" width="1" x="16" y="33" /><rect fill="#108ddc" height="1" width="1" x="17" y="33" /><rect fill="#0f8cdc" height="1" width="1" x="18" y="33" /><rect fill="#0e8adb" height="1" width="1" x="19" y="33" /><rect fill="#0d89db" height="1" width="1" x="20" y="33" /><rect fill="#0c88da" height="1" width="1" x="21" y="33" /><rect fill="#0b87da" height="1" width="1" x="22" y="33" /><rect fill="#0a85d9" height="1" width="1" x="23" y="33" /><rect fill="#0a85d9" height="1" width="1" x="24" y="33" /><rect fill="#0a85d9" height="1" width="1" x="25" y="33" /><rect fill="#0985d8" height="1" width="1" x="26" y="33" /><rect fill="#0a84d9" height="1" width="1" x="27" y="33" /><rect fill="#128fdf" height="1" width="1" x="15" y="34" /><rect fill="#108cdb" height="1" width="1" x="16" y="34" /><rect fill="#0e8bdc" height="1" width="1" x="17" y="34" /><rect fill="#0e89da" height="1" width="1" x="18" y="34" /><rect fill="#0c88da" height="1" width="1" x="19" y="34" /><rect fill="#0c88da" height="1" width="1" x="20" y="34" /><rect fill="#0a87d9" height="1" width="1" x="21" y="34" /><rect fill="#0985d9" height="1" width="1" x="22" y="34" /><rect fill="#0a84d8" height="1" width="1" x="23" y="34" /><rect fill="#0883d8" height="1" width="1" x="24" y="34" /><rect fill="#0883d5" height="1" width="1" x="25" y="34" /></svg>